<svg id="Capa_1" enable-background="new 0 0 512 512" height="512" viewBox="0 0 512 512" width="512" xmlns="http://www.w3.org/2000/svg"><g><g><path d="m61.651 236.922h388.698v261.25h-388.698z" fill="#fff2a0"/><path d="m217.155 498.172h-101.22v-90.505c0-27.705 22.459-50.164 50.164-50.164h.892c27.705 0 50.164 22.459 50.164 50.164z" fill="#ffa96b"/><path d="m375.781 424.563h-88.435c-16.569 0-30-13.431-30-30v-87.204c0-16.569 13.431-30 30-30h88.435c16.569 0 30 13.431 30 30v87.204c0 16.568-13.432 30-30 30z" fill="#ccf5fc"/><path d="m63.975 10.246h382.705v122.256h-382.705z" fill="#ff7d97"/><path d="m115.935 277.45h101.22v40.009h-101.22z" fill="#ccf5fc"/><path d="m41.107 129.23-20.067 74.695c-4.167 15.512 8.835 30.456 26.499 30.456h117.997l34.975-105.759z" fill="#a0e5a5"/><path d="m474.256 129.23 19.893 74.046c4.256 15.842-9.024 31.105-27.064 31.105h-117.258l-34.975-105.759z" fill="#a0e5a5"/><path d="m198.493 131.053-32.957 104.848h189.671l-41.7-104.848z" fill="#d0f2d2"/></g><g><path d="m501.329 200.127-20.416-70.434c-1.25-4.312-5.2-7.28-9.69-7.28h-15.463v-112.324c0-5.572-4.517-10.089-10.089-10.089h-379.342c-5.572 0-10.089 4.517-10.089 10.089v112.325h-15.463c-4.49 0-8.44 2.968-9.69 7.28l-20.416 70.435c-3.075 10.609-.959 21.858 5.806 30.861 7.537 10.033 19.94 16.022 33.177 16.022h1.908v254.9c0 5.572 4.517 10.089 10.089 10.089h388.698c5.572 0 10.089-4.517 10.089-10.089v-141.627c0-5.572-4.517-10.089-10.089-10.089s-10.089 4.517-10.089 10.089v131.537h-213.016v-83.817c0-33.411-27.229-60.591-60.699-60.591s-60.699 27.181-60.699 60.591v83.817h-34.106v-244.811h368.52v29.865c0 5.572 4.517 10.089 10.089 10.089s10.089-4.517 10.089-10.089v-29.865h1.908c13.237 0 25.64-5.989 33.177-16.022 6.765-9.003 8.881-20.252 5.806-30.862zm-375.305 207.879c0-22.284 18.178-40.414 40.521-40.414s40.521 18.129 40.521 40.414v83.817h-81.042zm-49.606-387.828h359.164v102.236h-359.164zm234.599 122.413 26.592 84.242h-157.669l26.592-84.242zm-278.409 76.278c-2.96-3.94-3.868-8.601-2.558-13.123l18.306-63.154h137.016l-26.592 84.242h-109.126c-6.926-.001-13.299-2.978-17.046-7.965zm446.784 0c-3.747 4.987-10.119 7.965-17.046 7.965h-103.578l-26.592-84.242h131.468l18.306 63.153c1.31 4.523.402 9.184-2.558 13.124z"/><path d="m287.612 267.27c-22.252 0-40.356 18.104-40.356 40.356v86.671c0 22.252 18.104 40.356 40.356 40.356h87.901c22.252 0 40.356-18.104 40.356-40.356v-86.671c0-22.252-18.104-40.356-40.356-40.356zm108.08 40.355v86.671c0 11.126-9.051 20.178-20.178 20.178h-87.901c-11.126 0-20.178-9.051-20.178-20.178v-86.671c0-11.126 9.051-20.178 20.178-20.178h87.901c11.126 0 20.178 9.052 20.178 20.178z"/><path d="m115.935 267.361c-5.572 0-10.089 4.517-10.089 10.089v40.009c0 5.572 4.517 10.089 10.089 10.089h101.22c5.572 0 10.089-4.517 10.089-10.089v-40.009c0-5.572-4.517-10.089-10.089-10.089zm91.131 40.009h-81.042v-19.831h81.042z"/><circle cx="449.707" cy="316.612" r="10"/><path d="m129.509 64.469c-5.524-2.038-10.687-4.25-12.567-5.07-.451-.454-.49-1.019-.43-1.444.16-1.106 1.111-2 2.613-2.452 5.778-1.742 11.299 2.54 11.519 2.713 3.199 2.644 7.937 2.219 10.611-.965 2.689-3.199 2.276-7.973-.923-10.661-4.32-3.632-14.568-8.891-25.572-5.578-7.16 2.158-12.228 7.826-13.228 14.794-.944 6.576 1.909 12.905 7.446 16.514.334.218.685.409 1.049.571.276.123 6.846 3.047 14.243 5.775 2.589.956 5.494 2.737 5.159 4.614-.29 1.625-2.605 4.028-6.653 4.028-4.25 0-8.324-1.695-10.897-4.534-2.808-3.098-7.593-3.331-10.688-.526-3.097 2.807-3.332 7.591-.526 10.688 5.475 6.042 13.533 9.506 22.111 9.506 10.781 0 19.844-6.94 21.551-16.501 1.296-7.26-1.916-16.713-14.818-21.472z"/><path d="m266.639 40.153c-17.331 0-31.432 13.97-31.432 31.142s14.101 31.143 31.432 31.143c17.332 0 31.433-13.971 31.433-31.143s-14.101-31.142-31.433-31.142zm0 47.15c-8.987 0-16.299-7.181-16.299-16.009 0-8.827 7.311-16.008 16.299-16.008 8.987 0 16.3 7.181 16.3 16.008 0 8.828-7.313 16.009-16.3 16.009z"/><path d="m208.16 40.756h-43.91c-4.179 0-7.567 3.387-7.567 7.567s3.387 7.567 7.567 7.567h14.3v38.768c0 4.179 3.387 7.567 7.567 7.567s7.567-3.387 7.567-7.567v-38.769h14.477c4.179 0 7.567-3.387 7.567-7.567s-3.389-7.566-7.568-7.566z"/><path d="m405.727 86.081h-11.422v-8.197h10.022c4.179 0 7.567-3.387 7.567-7.567s-3.387-7.567-7.567-7.567h-10.022v-8.197h11.422c4.179 0 7.567-3.387 7.567-7.567s-3.387-7.567-7.567-7.567h-18.989c-4.179 0-7.567 3.387-7.567 7.567v46.661c0 4.179 3.387 7.567 7.567 7.567h18.989c4.179 0 7.567-3.387 7.567-7.567s-3.387-7.566-7.567-7.566z"/><path d="m358.742 59.901c0-10.989-9.254-19.93-20.63-19.93h-12.643c-.002 0-.005 0-.007 0s-.005 0-.007 0c-4.179 0-7.567 3.387-7.567 7.567v47.572c0 4.179 3.387 7.567 7.567 7.567 4.179 0 7.567-3.387 7.567-7.567v-9.174l12.474 14.173c1.496 1.7 3.584 2.568 5.683 2.568 1.775 0 3.559-.622 4.996-1.887 3.137-2.761 3.441-7.542.681-10.679l-10.514-11.945c7.289-3.077 12.4-10.102 12.4-18.265zm-20.63-4.797c2.928 0 5.497 2.241 5.497 4.797s-2.569 4.797-5.497 4.797c-1.216 0-3.092.007-5.03.015-.008-1.862-.019-7.649-.024-9.609z"/></g></g></svg>